<svg xmlns="http://www.w3.org/2000/svg" xmlns:xlink="http://www.w3.org/1999/xlink" width="500" zoomAndPan="magnify" viewBox="0 0 375 374.999991" height="500" preserveAspectRatio="xMidYMid meet" version="1.0"><defs><g/><clipPath id="9911184ebb"><path d="M 187.5 0 C 83.945312 0 0 83.945312 0 187.5 C 0 291.054688 83.945312 375 187.5 375 C 291.054688 375 375 291.054688 375 187.5 C 375 83.945312 291.054688 0 187.5 0 " clip-rule="nonzero"/></clipPath><clipPath id="82330614da"><path d="M 154 60 L 221 60 L 221 127 L 154 127 Z M 154 60 " clip-rule="nonzero"/></clipPath><clipPath id="4a820a50dc"><path d="M 187.390625 47.335938 L 234.414062 94.359375 L 187.898438 140.875 L 140.875 93.847656 Z M 187.390625 47.335938 " clip-rule="nonzero"/></clipPath><clipPath id="ba8eb4c16c"><path d="M 210.675781 70.621094 C 197.816406 57.761719 177.011719 57.710938 164.207031 70.515625 C 151.40625 83.316406 151.453125 104.121094 164.3125 116.984375 C 177.175781 129.84375 197.980469 129.890625 210.78125 117.089844 C 223.585938 104.289062 223.539062 83.484375 210.675781 70.621094 " clip-rule="nonzero"/></clipPath><clipPath id="c451a35a37"><path d="M 162.011719 145.507812 L 214.40625 145.507812 L 214.40625 313.765625 L 162.011719 313.765625 Z M 162.011719 145.507812 " clip-rule="nonzero"/></clipPath><clipPath id="13220a9d1e"><path d="M 214.40625 290.101562 C 214.40625 303.144531 202.691406 313.71875 188.242188 313.71875 C 173.792969 313.71875 162.082031 303.144531 162.082031 290.101562 L 162.082031 169.121094 C 162.082031 156.082031 173.792969 145.507812 188.242188 145.507812 C 202.691406 145.507812 214.40625 156.082031 214.40625 169.121094 L 214.40625 290.101562 " clip-rule="nonzero"/></clipPath></defs><g clip-path="url(#9911184ebb)"><rect x="-37.5" width="450" fill="#ffffff" y="-37.499999" height="449.999989" fill-opacity="1"/><path stroke-linecap="butt" transform="matrix(0.75, 0, 0, 0.75, 0.0000045, -0.000000000000042633)" fill="none" stroke-linejoin="miter" d="M 249.999994 0.000000000000056843 C 111.927078 0.000000000000056843 -0.000006 111.927084 -0.000006 250 C -0.000006 388.072917 111.927078 500.000001 249.999994 500.000001 C 388.072911 500.000001 499.999995 388.072917 499.999995 250 C 499.999995 111.927084 388.072911 0.000000000000056843 249.999994 0.000000000000056843 " stroke="#004aad" stroke-width="100" stroke-opacity="1" stroke-miterlimit="4"/></g><g clip-path="url(#82330614da)"><g clip-path="url(#4a820a50dc)"><g clip-path="url(#ba8eb4c16c)"><path fill="#004aad" d="M 187.390625 47.335938 L 233.902344 93.847656 L 187.390625 140.363281 L 140.875 93.847656 Z M 187.390625 47.335938 " fill-opacity="1" fill-rule="nonzero"/></g></g></g><g clip-path="url(#c451a35a37)"><g clip-path="url(#13220a9d1e)"><path fill="#004aad" d="M 214.40625 145.507812 L 214.40625 313.765625 L 162.011719 313.765625 L 162.011719 145.507812 Z M 214.40625 145.507812 " fill-opacity="1" fill-rule="nonzero"/></g></g><g fill="#ffffff" fill-opacity="1"><g transform="translate(163.731102, 105.801694)"><g><path d="M 8.046875 0 L -0.125 -21.484375 L 6.234375 -21.515625 L 11.3125 -5.84375 L 16.359375 -21.515625 L 22.484375 -21.515625 L 14.359375 0 Z M 8.046875 0 "/></g></g></g><g fill="#ffffff" fill-opacity="1"><g transform="translate(185.968894, 105.801694)"><g><path d="M 16.5625 -21.765625 C 18.957031 -21.765625 20.867188 -21.015625 22.296875 -19.515625 C 23.722656 -18.023438 24.4375 -16.023438 24.4375 -13.515625 L 24.4375 0 L 18.28125 0 L 18.28125 -11.71875 C 18.28125 -13.082031 17.898438 -14.15625 17.140625 -14.9375 C 16.378906 -15.726562 15.347656 -16.125 14.046875 -16.125 C 12.523438 -16.09375 11.320312 -15.5625 10.4375 -14.53125 C 9.5625 -13.507812 9.125 -12.195312 9.125 -10.59375 L 9.125 0 L 2.953125 0 L 2.953125 -21.515625 L 9.125 -21.515625 L 9.125 -17.765625 C 10.613281 -20.378906 13.09375 -21.710938 16.5625 -21.765625 Z M 16.5625 -21.765625 "/></g></g></g></svg>